<?xml version="1.0" standalone="no"?>
<!DOCTYPE svg PUBLIC "-//W3C//DTD SVG 20010904//EN"
 "http://www.w3.org/TR/2001/REC-SVG-20010904/DTD/svg10.dtd">
<svg version="1.0" xmlns="http://www.w3.org/2000/svg"
 width="2048.000000pt" height="2048.000000pt" viewBox="0 0 2048.000000 2048.000000"
 preserveAspectRatio="xMidYMid meet">
<metadata>
Created by potrace 1.14, written by Peter Selinger 2001-2017
</metadata>
<g transform="translate(0.000000,2048.000000) scale(0.100000,-0.100000)"
fill="#000000" stroke="none">
<path d="M7218 16628 l-3 -3363 -3362 -3 -3363 -2 0 -398 1 -397 1079 -1102
c594 -607 1080 -1107 1080 -1112 0 -5 -486 -505 -1080 -1112 l-1080 -1104 0
-407 0 -408 3363 -2 3362 -3 3 -3362 2 -3363 408 0 407 0 1104 1080 c607 594
1107 1080 1112 1080 5 0 505 -486 1112 -1080 l1102 -1079 397 -1 398 0 2 3363
3 3362 3363 3 3362 2 0 408 0 407 -1080 1104 c-594 607 -1080 1107 -1080 1112
0 5 486 505 1080 1112 l1079 1102 1 397 0 398 -3362 2 -3363 3 -3 3363 -2
3362 -398 0 -397 -1 -1102 -1079 c-607 -594 -1107 -1080 -1112 -1080 -5 0
-505 486 -1112 1080 l-1104 1080 -407 0 -408 0 -2 -3362z m2007 747 c506 -494
943 -921 971 -948 l51 -49 1059 1036 1059 1036 3 -3040 2 -3040 3040 -2 3040
-3 -1036 -1059 -1035 -1058 23 -26 c13 -13 479 -491 1036 -1061 l1013 -1036
-3040 -3 -3041 -2 -2 -3040 -3 -3039 -1057 1034 c-582 569 -1060 1035 -1062
1035 -3 0 -481 -466 -1063 -1035 l-1058 -1035 -3 3040 -2 3040 -3040 2 -3040
3 1035 1058 c569 582 1035 1060 1035 1063 0 2 -466 480 -1035 1062 l-1034
1057 3039 3 3040 2 0 3042 0 3043 93 -91 c50 -50 506 -495 1012 -989z"/>
<path d="M10000 13234 c-592 -53 -1157 -277 -1620 -644 -132 -104 -372 -344
-478 -477 -333 -421 -539 -896 -623 -1443 -20 -125 -23 -184 -23 -425 0 -308
14 -441 74 -690 228 -957 903 -1734 1820 -2098 215 -85 441 -144 705 -184 186
-27 620 -25 815 5 543 84 1023 292 1443 624 132 106 373 346 475 475 332 421
540 900 624 1438 19 120 22 181 22 430 0 249 -3 310 -22 430 -106 680 -406
1261 -893 1730 -354 341 -781 588 -1239 718 -300 85 -462 108 -785 112 -137 1
-270 1 -295 -1z m565 -1019 c435 -77 794 -263 1097 -566 290 -291 484 -673
555 -1095 24 -148 24 -475 0 -619 -75 -432 -263 -800 -562 -1100 -905 -904
-2408 -735 -3100 350 -64 101 -151 284 -193 405 -250 731 -69 1522 473 2065
321 320 733 518 1195 575 108 13 428 4 535 -15z"/>
<path d="M10137 11239 c-468 -49 -852 -441 -885 -902 -15 -201 15 -365 98
-532 97 -197 258 -358 455 -455 159 -79 236 -95 445 -95 201 0 267 14 425 89
622 295 763 1119 276 1607 -168 168 -372 264 -612 289 -56 5 -106 9 -113 9 -6
-1 -46 -5 -89 -10z"/>
</g>
</svg>
